Patient4_TMGait_0pt2_01_left_02_GRF.mot
version=1
nRows=32
nColumns=19
inDegrees=no
endheader
time	F1x	F1y	F1z	M1x	M1y	M1z	F2x	F2y	F2z	M2x	M2y	M2z	EC1x	EC1y	EC1z	EC2x	EC2y	EC2z
3.33	7.8073	109.6356	12.4682	-37.8606	-10.7529	110.3818	-18.5251	645.7378	-34.574	232.5526	48.1609	757.6609	-0.0592	0.0182	-0.0073	-0.0462	0.0165	0.9585
3.3536	5.9069	91.9591	11.5713	-31.819	-10.249	92.7696	-18.0444	665.9269	-35.9774	239.0721	49.5734	779.133	-0.0592	0.0182	-0.0073	-0.0462	0.0165	0.9585
3.3771	3.8122	73.01	10.286	-25.3072	-9.4591	73.8242	-17.9019	689.5027	-37.4089	246.9849	51.1156	804.2695	-0.0592	0.0182	-0.0073	-0.0462	0.0165	0.9585
3.4007	1.7768	54.4804	8.677	-18.9136	-8.3759	55.2419	-18.1317	715.0731	-38.6563	255.8971	52.562	831.4877	-0.0592	0.0182	-0.0073	-0.0462	0.0165	0.9585
3.4243	0.098242	37.8043	6.8788	-13.1416	-7.0307	38.4732	-18.6489	741.0585	-39.5481	265.2891	53.6837	858.9181	-0.0592	0.0182	-0.0073	-0.0462	0.0165	0.9585
3.4479	-0.98749	23.9188	5.0568	-8.324	-5.5006	24.4823	-19.2802	765.9367	-40.0023	274.6011	54.3082	884.7211	-0.0592	0.0182	-0.0073	-0.0462	0.0165	0.9585
3.4714	-1.4465	13.2471	3.3842	-4.6133	-3.9388	13.7085	-19.8024	788.368	-40.0069	283.2904	54.3165	907.2766	-0.0592	0.0182	-0.0073	-0.0462	0.0165	0.9585
3.495	-1.4744	5.7616	2.015	-2.0026	-2.5575	6.1323	-19.9955	807.1783	-39.5992	290.8431	53.6464	925.2058	-0.0592	0.0182	-0.0073	-0.0462	0.0165	0.9585
3.5186	-1.274	1.0124	1.0055	-0.33924	-1.4742	1.3097	-19.6565	821.2576	-38.8653	296.7534	52.3038	937.2848	-0.0592	0.0182	-0.0073	-0.0462	0.0165	0.9585
3.5421	-0.99143	-1.662	0.33235	0.6045	-0.70949	-1.4248	-18.6214	829.4729	-37.9401	300.5066	50.3808	942.345	-0.0592	0.0182	-0.0073	-0.0462	0.0165	0.9585
3.5657	-0.71857	-2.9507	-0.065403	1.0677	-0.23094	-2.7735	-16.808	830.8626	-36.9755	301.6671	48.0405	939.4681	-0.0592	0.0182	-0.0073	-0.0462	0.0165	0.9585
3.5893	-0.50158	-3.4654	-0.26115	1.2637	0.020538	-3.3648	-14.2321	825.1539	-36.0917	300.0794	45.4636	928.5258	-0.0592	0.0182	-0.0073	-0.0462	0.0165	0.9585
3.6129	-0.35502	-3.6891	-0.32649	1.3611	0.11441	-3.6963	-10.9964	813.2264	-35.357	296.0429	42.8112	910.6607	-0.0592	0.0182	-0.0073	-0.0462	0.0165	0.9585
3.6364	-0.26914	-3.9561	-0.32382	1.4759	0.12073	-4.1139	-7.2515	797.1649	-34.7951	290.3287	40.2102	888.3113	-0.0592	0.0182	-0.0073	-0.0462	0.0165	0.9585
3.66	-0.21661	-4.4428	-0.30226	1.6685	0.10337	-4.7982	-3.1746	779.8203	-34.3945	284.0112	37.7451	864.7132	-0.0592	0.0182	-0.0073	-0.0462	0.0165	0.9585
3.6836	-0.15395	-5.1584	-0.29801	1.9395	0.11929	-5.7458	1.0298	764.0763	-34.1212	278.1905	35.4718	843.0988	-0.0592	0.0182	-0.0073	-0.0462	0.0165	0.9585
3.7071	-0.024931	-5.9309	-0.3357	2.2233	0.21845	-6.7491	5.1296	752.1397	-33.946	273.7212	33.4467	825.9335	-0.0592	0.0182	-0.0073	-0.0462	0.0165	0.9585
3.7307	0.23592	-6.3806	-0.42626	2.3775	0.4387	-7.3651	8.8947	745.0647	-33.8546	271.029	31.7287	814.4061	-0.0592	0.0182	-0.0073	-0.0462	0.0165	0.9585
3.7543	0.70317	-5.8911	-0.56461	2.1725	0.7999	-6.8772	12.1341	742.6025	-33.8365	270.0518	30.3582	808.2741	-0.0592	0.0182	-0.0073	-0.0462	0.0165	0.9585
3.7779	1.4477	-3.6004	-0.7264	1.2867	1.2995	-4.2722	14.72	743.3579	-33.8804	270.2962	29.3488	806.0311	-0.0592	0.0182	-0.0073	-0.0462	0.0165	0.9585
3.8014	2.5153	1.575	-0.86482	-0.68481	1.9	1.7366	16.6047	745.201	-33.966	270.9868	28.6786	805.3471	-0.0592	0.0182	-0.0073	-0.0462	0.0165	0.9585
3.825	3.8953	10.8543	-0.9017	-4.1949	2.5058	12.5987	17.8206	745.7486	-34.0469	271.2439	28.2744	803.6	-0.0592	0.0182	-0.0073	-0.0462	0.0165	0.9585
3.8486	5.4771	25.3998	-0.72032	-9.6723	2.9377	29.703	18.4609	742.6741	-34.0555	270.1984	28.0198	798.2332	-0.0592	0.0182	-0.0073	-0.0462	0.0165	0.9585
3.8721	6.9336	46.0359	-0.16869	-17.4154	2.8907	54.0538	18.6302	733.8862	-33.9103	267.0622	27.7842	786.9752	-0.0592	0.0182	-0.0073	-0.0462	0.0165	0.9585
3.8957	7.6386	72.8764	0.93309	-27.4512	1.9128	85.8348	18.3882	717.7316	-33.5165	261.2099	27.4441	768.0661	-0.0592	0.0182	-0.0073	-0.0462	0.0165	0.9585
3.9193	7.1107	105.1895	2.7589	-39.4859	-0.38715	124.2403	17.7476	693.362	-32.7743	252.3193	26.8923	740.634	-0.0592	0.0182	-0.0073	-0.0462	0.0165	0.9585
3.9429	5.3532	141.5028	5.4078	-52.9494	-4.1289	167.5436	16.7169	661.0966	-31.6157	240.5046	26.0618	705.0609	-0.0592	0.0182	-0.0073	-0.0462	0.0165	0.9585
3.9664	2.6635	179.8768	8.7021	-67.1193	-8.9862	213.4224	15.3442	622.5062	-30.0372	226.3424	24.9432	663.0493	-0.0592	0.0182	-0.0073	-0.0462	0.0165	0.9585
3.99	-0.57861	218.5126	12.2061	-81.3469	-14.2918	259.7077	13.7441	580.1626	-28.1148	210.7772	23.5855	617.3333	-0.0592	0.0182	-0.0073	-0.0462	0.0165	0.9585
4.0136	-4.039	256.1598	15.5547	-95.1887	-19.4908	304.8859	12.0742	537.0531	-25.995	194.9007	22.0904	571.0509	-0.0592	0.0182	-0.0073	-0.0462	0.0165	0.9585
4.0371	-7.4631	292.0555	18.5149	-108.3757	-24.2205	348.0394	10.4634	495.8401	-23.8667	179.6779	20.6036	526.9714	-0.0592	0.0182	-0.0073	-0.0462	0.0165	0.9585
4.0607	-10.6444	325.6977	20.9529	-120.7277	-28.2534	388.5533	8.9584	458.2971	-21.9136	165.7517	19.2879	486.9213	-0.0592	0.0182	-0.0073	-0.0462	0.0165	0.9585
